<svg width="28" height="28" viewBox="0 0 28 28" fill="none" xmlns="http://www.w3.org/2000/svg">
<path d="M25.6675 5.13245H17.6496C16.3428 5.13245 15.1387 5.8325 14.4853 6.96192L11.6758 11.8343C12.2265 12.1517 12.6839 12.609 13.0106 13.1691L18.6017 22.8485L27.2543 7.86733C27.9544 6.6539 27.077 5.13245 25.6675 5.13245Z" fill="#00A698"/>
<path d="M9.8466 11.3492H1.82864C0.419196 11.3492 -0.458205 12.8707 0.251184 14.0935L5.31024 22.8675L11.6761 11.8439C11.1254 11.5173 10.5 11.3492 9.8466 11.3492Z" fill="#EA552B"/>
<path d="M11.6744 11.8336L5.30859 22.8571H18.6003L13.0092 13.1684C12.6825 12.6083 12.2251 12.151 11.6744 11.8336Z" fill="#4723D1"/>
<path d="M9.29441 9.46345C10.4904 9.46345 11.4599 8.49392 11.4599 7.29795C11.4599 6.10198 10.4904 5.13245 9.29441 5.13245C8.09843 5.13245 7.12891 6.10198 7.12891 7.29795C7.12891 8.49392 8.09843 9.46345 9.29441 9.46345Z" fill="#EA552B"/>
</svg>
